<?xml version="1.0" standalone="no"?>
<!DOCTYPE svg PUBLIC "-//W3C//DTD SVG 20010904//EN"
 "http://www.w3.org/TR/2001/REC-SVG-20010904/DTD/svg10.dtd">
<svg version="1.0" xmlns="http://www.w3.org/2000/svg"
 width="445.000000pt" height="445.000000pt" viewBox="0 0 445.000000 445.000000"
 preserveAspectRatio="xMidYMid meet">
<metadata>
Created by potrace 1.14, written by Peter Selinger 2001-2017
</metadata>
<g transform="translate(0.000000,445.000000) scale(0.100000,-0.100000)"
fill="#000000" stroke="none">
<path d="M1280 4421 c-117 -25 -212 -73 -287 -146 -53 -51 -131 -169 -501
-756 -327 -520 -444 -714 -462 -765 -33 -100 -39 -275 -12 -404 66 -320 282
-687 633 -1077 61 -68 108 -127 105 -132 -11 -18 276 -272 495 -438 476 -361
996 -607 1444 -683 108 -18 155 -21 280 -17 169 5 232 19 343 73 133 65 142
77 626 859 271 437 449 734 464 774 31 82 41 244 22 359 -41 262 -204 587
-456 912 -102 132 -404 440 -544 555 -119 99 -385 298 -499 374 -366 245 -758
422 -1101 496 -169 37 -421 44 -550 16z m507 -160 c437 -91 927 -344 1390
-716 560 -449 970 -979 1085 -1402 31 -115 31 -296 -1 -375 -83 -209 -342
-305 -685 -253 -571 86 -1307 516 -1897 1108 -415 416 -666 836 -695 1163 -21
244 119 435 356 483 30 6 64 13 75 15 43 11 285 -5 372 -23z m-940 -567 c19
-82 16 -142 -7 -154 -15 -8 -21 -8 -24 2 -2 7 -13 48 -25 91 l-22 78 23 19
c32 27 41 21 55 -36z m83 -286 c0 -22 114 -248 180 -358 218 -363 538 -713
907 -992 107 -82 128 -112 88 -130 -20 -9 -33 -3 -107 53 -214 164 -496 438
-661 644 -127 158 -267 372 -352 537 -97 189 -111 224 -95 243 15 18 40 20 40
3z m2340 -2021 c88 -28 106 -37 108 -55 2 -12 -3 -24 -10 -27 -7 -3 -58 10
-113 28 -91 31 -100 36 -103 60 -2 15 0 27 5 27 4 0 55 -15 113 -33z m363 -67
c48 -6 144 -10 212 -9 68 0 128 -2 134 -6 15 -8 14 -38 -1 -53 -25 -25 -407
-10 -475 18 -41 17 -22 74 21 65 12 -2 61 -9 109 -15z"/>
<path d="M2009 3580 c-352 -60 -220 -529 268 -951 308 -265 710 -447 942 -425
126 11 205 72 231 178 10 38 9 61 -4 125 -75 368 -605 864 -1100 1028 -55 19
-136 38 -179 44 -86 12 -92 12 -158 1z"/>
</g>
</svg>
